<mxfile host="app.diagrams.net" modified="2021-08-29T06:55:22.526Z" agent="5.0 (Windows NT 10.0; Win64; x64) AppleWebKit/537.36 (KHTML, like Gecko) Chrome/92.0.4515.159 Safari/537.36" etag="q4EAb19CazKUV4MvNsJq" version="15.0.3" type="github">
  <diagram id="BnoFfsT9mlbGI4AcAqlm" name="Page-1">
    <mxGraphModel dx="1187" dy="636" grid="1" gridSize="10" guides="1" tooltips="1" connect="1" arrows="1" fold="1" page="1" pageScale="1" pageWidth="850" pageHeight="1100" math="0" shadow="0">
      <root>
        <mxCell id="0" />
        <mxCell id="1" parent="0" />
        <mxCell id="9Mfb64QrVlvxMWU2IxtH-3" value="" style="whiteSpace=wrap;html=1;aspect=fixed;" vertex="1" parent="1">
          <mxGeometry x="30" y="60" width="390" height="390" as="geometry" />
        </mxCell>
        <mxCell id="9Mfb64QrVlvxMWU2IxtH-4" value="" style="whiteSpace=wrap;html=1;aspect=fixed;" vertex="1" parent="1">
          <mxGeometry x="500" y="60" width="390" height="390" as="geometry" />
        </mxCell>
        <mxCell id="9Mfb64QrVlvxMWU2IxtH-5" value="Call Stack&lt;br&gt;" style="text;html=1;strokeColor=none;fillColor=none;align=center;verticalAlign=middle;whiteSpace=wrap;rounded=0;" vertex="1" parent="1">
          <mxGeometry x="60" y="80" width="140" height="40" as="geometry" />
        </mxCell>
        <mxCell id="9Mfb64QrVlvxMWU2IxtH-7" value="Heap" style="text;html=1;strokeColor=none;fillColor=none;align=center;verticalAlign=middle;whiteSpace=wrap;rounded=0;" vertex="1" parent="1">
          <mxGeometry x="510" y="80" width="140" height="40" as="geometry" />
        </mxCell>
        <mxCell id="9Mfb64QrVlvxMWU2IxtH-12" style="edgeStyle=orthogonalEdgeStyle;rounded=0;orthogonalLoop=1;jettySize=auto;html=1;entryX=0;entryY=0.75;entryDx=0;entryDy=0;" edge="1" parent="1" source="9Mfb64QrVlvxMWU2IxtH-9" target="9Mfb64QrVlvxMWU2IxtH-11">
          <mxGeometry relative="1" as="geometry" />
        </mxCell>
        <mxCell id="9Mfb64QrVlvxMWU2IxtH-9" value="Main() : Student s" style="rounded=0;whiteSpace=wrap;html=1;" vertex="1" parent="1">
          <mxGeometry x="60" y="370" width="320" height="70" as="geometry" />
        </mxCell>
        <mxCell id="9Mfb64QrVlvxMWU2IxtH-11" value="s: &quot;Tom&quot;" style="rounded=1;whiteSpace=wrap;html=1;" vertex="1" parent="1">
          <mxGeometry x="610" y="170" width="120" height="60" as="geometry" />
        </mxCell>
        <mxCell id="9Mfb64QrVlvxMWU2IxtH-15" style="edgeStyle=orthogonalEdgeStyle;rounded=0;orthogonalLoop=1;jettySize=auto;html=1;" edge="1" parent="1" source="9Mfb64QrVlvxMWU2IxtH-13" target="9Mfb64QrVlvxMWU2IxtH-14">
          <mxGeometry relative="1" as="geometry" />
        </mxCell>
        <mxCell id="9Mfb64QrVlvxMWU2IxtH-18" style="edgeStyle=orthogonalEdgeStyle;rounded=0;orthogonalLoop=1;jettySize=auto;html=1;" edge="1" parent="1" source="9Mfb64QrVlvxMWU2IxtH-13" target="9Mfb64QrVlvxMWU2IxtH-14">
          <mxGeometry relative="1" as="geometry" />
        </mxCell>
        <mxCell id="9Mfb64QrVlvxMWU2IxtH-13" value="change student: s, t&lt;br&gt;t&amp;nbsp;&lt;br&gt;s-------------&amp;gt; t: &quot;Jerry&quot;&amp;nbsp;" style="rounded=0;whiteSpace=wrap;html=1;" vertex="1" parent="1">
          <mxGeometry x="60" y="280" width="310" height="60" as="geometry" />
        </mxCell>
        <mxCell id="9Mfb64QrVlvxMWU2IxtH-14" value="t: &quot;jerry&quot;" style="rounded=1;whiteSpace=wrap;html=1;" vertex="1" parent="1">
          <mxGeometry x="620" y="280" width="120" height="60" as="geometry" />
        </mxCell>
      </root>
    </mxGraphModel>
  </diagram>
</mxfile>
